<?xml version="1.0" standalone="no"?>
<!DOCTYPE svg PUBLIC "-//W3C//DTD SVG 1.1//EN" "http://www.w3.org/Graphics/SVG/1.1/DTD/svg11.dtd" >
<svg xmlns="http://www.w3.org/2000/svg">
<metadata>
<json>
<![CDATA[
{
	"fontFamily": "Linearicons",
	"majorVersion": 2,
	"minorVersion": 0,
	"fontURL": "http://linearicons.com",
	"designer": "",
	"designerURL": "http://perxis.com",
	"license": "http://linearicons.com/license",
	"licenseURL": "http://linearicons.com/license",
	"copyright": "Copyright © 2015 Perxis.com. All Rights Reserved.",
	"description": "Designed by Perxis (http://perxis.com).\nFont generated by IcoMoon.",
	"version": "Version 2.0",
	"fontId": "Linearicons",
	"psName": "Linearicons",
	"subFamily": "Regular",
	"fullName": "Linearicons"
}
]]>
</json>
</metadata>
<defs>
<font id="Linearicons" horiz-adv-x="2048">
<font-face units-per-em="2048" ascent="1945.6" descent="-102.4" />
<missing-glyph horiz-adv-x="2048" />
<glyph unicode="&#x20;" horiz-adv-x="819.2" d="" />
<glyph unicode="&#xe60f;" glyph-name="pen" data-tags="pen, write, edit" d="M2004.202 1901.804c-28.624 28.628-67.1 43.14-114.356 43.14-77.104 0-180.78-40.346-309.382-120.192-41.204 43.562-119.504 110.298-218.204 118.314-78.79 6.394-153.114-24.71-220.864-92.46-143.914-143.914-214.732-319.584-261.596-435.828-15.924-39.5-35.74-88.666-45.604-98.79-3.356-3.356-13.536-13.532-31.092 1.284-20.068 18.922-51.674 18.564-71.308-1.066-19.996-19.996-19.996-52.412 0-72.406 8.388-8.39 29.952-24.652 57.572-32.4 11.104-3.116 22.128-4.656 32.938-4.656 12.982 0 25.652 2.25 37.786 6.628-14.054-14.404-28.084-28.906-42.070-43.514-360.106-376.156-763.924-892.246-817.322-1212.636-2.72-16.314 2.608-32.932 14.298-44.62 9.68-9.684 22.74-14.998 36.204-14.998 2.796 0 5.612 0.228 8.42 0.698 133.932 22.324 310.518 107.062 524.842 251.868 189.594 128.092 399.932 297.74 608.278 490.596 203.204 188.090 388.556 383.222 536.020 564.304 110.186 135.3 251.748 328.484 300.448 480.442 30.804 96.128 22.39 168.902-25.004 216.298zM1213.802 1778.198c46.052 46.052 91.782 66.618 139.78 62.836 57.404-4.502 107.862-42.822 139.786-73.75-25.248-17.564-51.284-36.394-78.134-56.538-145.852-109.42-311.312-254.822-476.16-417.862 10.988 22.336 22.164 50.020 35.706 83.606 43.754 108.534 109.872 272.554 239.024 401.708zM310.868 384.726l176.342-176.342c-139.82-91.292-264.58-156.278-365.564-189.162 32.966 101.030 98.15 225.942 189.222 365.504zM1123.178 715.908c-192.080-177.798-379.868-330.532-549.584-449.094l-204.326 204.33c135.28 193.792 314.49 410.39 522.724 627.9 241.85 252.624 480.774 461.27 671.988 592.58l229.798-229.804c-146.532-213.594-387.636-483.99-670.598-745.91zM1931.686 1716.756c-15.158-47.302-42.764-103.718-81.012-167.024l-198.806 198.806c100.148 60.564 182.294 94.006 237.978 94.006 28.8 0 38.698-9.898 41.948-13.148 23.716-23.712 10.112-80.752-0.108-112.64z" />
<glyph unicode="&#xe65a;" glyph-name="cloud-cross" data-tags="cloud-cross, cloud, error, fail" d="M1638.4 307.2h-460.8c-28.278 0-51.2 22.922-51.2 51.2s22.922 51.2 51.2 51.2h460.8c169.392 0 307.2 137.808 307.2 307.2s-137.808 307.2-307.2 307.2c-35.152 0-69.594-5.872-102.362-17.452-22.202-7.844-46.902 0.468-59.844 20.15-12.938 19.68-10.778 45.654 5.232 62.928 35.19 37.972 54.572 87.398 54.572 139.174 0 112.928-91.872 204.8-204.8 204.8-107.994 0-197.776-84.324-204.396-191.972-1.334-21.716-16.25-40.214-37.188-46.128-20.948-5.92-43.328 2.054-55.824 19.86-95.914 136.652-252.694 218.24-419.392 218.24-282.316 0-512-229.68-512-512 0-106.14 32.172-207.94 93.044-294.394 16.278-23.12 10.732-55.060-12.388-71.34-23.116-16.272-55.062-10.732-71.34 12.39-73.084 103.802-111.716 225.984-111.716 353.344 0 338.78 275.62 614.4 614.4 614.4 164.966 0 321.834-66.572 436.298-181.866 48.186 107.492 156.32 181.866 280.502 181.866 169.392 0 307.2-137.808 307.2-307.2 0-35.42-6.048-70.112-17.636-102.772 5.862 0.246 11.74 0.372 17.636 0.372 225.852 0 409.6-183.748 409.6-409.6s-183.748-409.6-409.6-409.6zM738.006 614.4l219.798 219.798c19.996 19.994 19.996 52.412 0 72.406s-52.412 19.994-72.406 0l-219.798-219.798-219.798 219.798c-19.994 19.994-52.412 19.994-72.406 0-19.996-19.994-19.996-52.412 0-72.406l219.798-219.798-219.798-219.798c-19.996-19.994-19.996-52.412 0-72.406 10-9.996 23.1-14.996 36.204-14.996s26.204 4.998 36.202 14.998l219.798 219.796 219.798-219.798c9.996-9.996 23.098-14.996 36.202-14.996s26.204 4.998 36.202 14.998c19.996 19.994 19.996 52.412 0 72.406l-219.796 219.796z" />
<glyph unicode="&#xe696;" glyph-name="envelope" data-tags="envelope, mail, letter, email" d="M1792 1331.2h-1638.4c-84.694 0-153.6-68.906-153.6-153.6v-921.6c0-84.698 68.906-153.6 153.6-153.6h1638.4c84.698 0 153.6 68.902 153.6 153.6v921.6c0 84.694-68.902 153.6-153.6 153.6zM1792 1228.8c3.028 0 5.98-0.316 8.868-0.822l-771.264-514.18c-29.724-19.814-83.876-19.814-113.604 0l-771.268 514.18c2.886 0.506 5.84 0.822 8.868 0.822h1638.4zM1792 204.8h-1638.4c-28.23 0-51.2 22.97-51.2 51.2v877.132l756.8-504.534c31.85-21.236 72.726-31.85 113.6-31.85s81.754 10.614 113.604 31.85l756.796 504.534v-877.132c0-28.23-22.97-51.2-51.2-51.2z" />
<glyph unicode="&#xe6dc;" glyph-name="license2" data-tags="license, certificate" d="M1894.4 102.4h-1740.8c-84.694 0-153.6 68.902-153.6 153.6v1331.2c0 84.694 68.906 153.6 153.6 153.6h1740.8c84.698 0 153.6-68.906 153.6-153.6v-1331.2c0-84.698-68.902-153.6-153.6-153.6zM153.6 1638.4c-28.23 0-51.2-22.97-51.2-51.2v-1331.2c0-28.23 22.97-51.2 51.2-51.2h1740.8c28.23 0 51.2 22.97 51.2 51.2v1331.2c0 28.23-22.97 51.2-51.2 51.2h-1740.8zM972.8 1331.2h-614.4c-28.276 0-51.2 22.924-51.2 51.2s22.924 51.2 51.2 51.2h614.4c28.276 0 51.2-22.924 51.2-51.2s-22.924-51.2-51.2-51.2zM972.8 1024h-614.4c-28.276 0-51.2 22.922-51.2 51.2s22.924 51.2 51.2 51.2h614.4c28.276 0 51.2-22.922 51.2-51.2s-22.924-51.2-51.2-51.2zM972.8 819.2h-614.4c-28.276 0-51.2 22.922-51.2 51.2s22.924 51.2 51.2 51.2h614.4c28.276 0 51.2-22.922 51.2-51.2s-22.924-51.2-51.2-51.2zM972.8 614.4h-614.4c-28.276 0-51.2 22.922-51.2 51.2s22.924 51.2 51.2 51.2h614.4c28.276 0 51.2-22.922 51.2-51.2s-22.924-51.2-51.2-51.2zM870.4 409.6h-512c-28.276 0-51.2 22.922-51.2 51.2s22.924 51.2 51.2 51.2h512c28.276 0 51.2-22.922 51.2-51.2s-22.924-51.2-51.2-51.2zM1837.354 1275.514l-83.292 60.516-31.818 97.914h-102.95l-83.292 60.516-83.29-60.516h-102.95l-31.818-97.914-83.292-60.516 31.818-97.914-31.818-97.914 83.292-60.518 13.504-41.548c-0.154-1.588-0.246-3.194-0.246-4.82v-512c0-20.71 12.474-39.38 31.606-47.302 19.136-7.93 41.156-3.54 55.798 11.1l117.396 117.396 117.398-117.398c9.796-9.798 22.886-15.002 36.214-14.998 6.596 0 13.248 1.274 19.58 3.898 19.132 7.926 31.606 26.596 31.606 47.306v512c0 1.626-0.092 3.232-0.244 4.82l13.504 41.548 83.292 60.518-31.82 97.914 31.82 97.914zM1355.028 1236.4l50.020 36.34 19.108 58.8h61.824l50.022 36.346 50.022-36.342h61.824l19.108-58.8 50.020-36.34-19.108-58.804 19.108-58.8-50.020-36.342-19.108-58.8h-61.824l-50.022-36.346-50.022 36.342h-61.824l-19.108 58.8-50.020 36.342 19.108 58.804-19.108 58.8zM1572.202 650.602c-19.994 19.994-52.412 19.994-72.406 0l-66.196-66.196v336.852h19.11l83.29-60.516 83.29 60.512h19.11v-336.852l-66.198 66.198z" />
<glyph unicode="&#xe76a;" glyph-name="telephone" data-tags="telephone, phone, call, contact" d="M1638.4-102.4c-181.382 0-374.308 51.398-573.412 152.772-183.588 93.472-364.96 227.308-524.516 387.044-159.526 159.706-293.19 341.248-386.544 524.996-101.216 199.22-152.538 392.204-152.538 573.59 0 117.548 109.53 231.1 156.62 274.464 67.7 62.34 174.208 135.136 251.588 135.136 38.49 0 83.606-25.178 141.988-79.232 43.564-40.34 92.54-95.020 141.628-158.134 29.588-38.042 177.184-232.534 177.184-325.834 0-76.54-86.5-129.706-178.074-185.996-35.388-21.75-71.984-44.244-98.452-65.46-28.228-22.63-33.29-34.576-34.122-37.258 97.204-242.256 394.282-539.302 636.406-636.368 2.17 0.682 14.134 5.398 37.184 34.15 21.216 26.468 43.708 63.062 65.46 98.454 56.288 91.578 109.452 178.076 185.996 178.076 93.296 0 287.792-147.596 325.834-177.184 63.114-49.092 117.796-98.064 158.134-141.632 54.058-58.378 79.232-103.494 79.232-141.984 0-77.402-72.756-184.23-135.056-252.198-43.386-47.324-156.982-157.402-274.544-157.402zM408.954 1843.194c-27.462-0.524-101.268-34.108-181.578-108.058-76.23-70.198-123.584-146.5-123.584-199.136 0-689.046 846.186-1536 1534.608-1536 52.56 0 128.836 47.59 199.056 124.198 74.006 80.732 107.612 154.826 108.138 182.356-3.324 19.456-57.14 95.126-204.464 208.566-126.644 97.524-229.398 149.772-255.802 150.474-1.85-0.548-13.312-4.934-36.554-34.444-20.208-25.664-41.824-60.836-62.732-94.848-57.366-93.332-111.548-181.488-190.244-181.488-12.672 0-25.194 2.438-37.216 7.248-268.752 107.5-586.62 425.37-694.122 694.122-12.912 32.276-14.97 82.828 48.544 140.368 33.764 30.586 80.5 59.312 125.696 87.092 34.012 20.906 69.18 42.522 94.844 62.732 29.51 23.238 33.9 34.704 34.444 36.554-0.704 26.406-52.95 129.158-150.474 255.804-113.44 147.318-189.108 201.136-208.564 204.46z" />
<glyph unicode="&#xe789;" glyph-name="calendar-full" data-tags="calendar-full, calendar, date, schedule" d="M1894.4 1740.8h-256v51.2c0 28.276-22.922 51.2-51.2 51.2s-51.2-22.924-51.2-51.2v-51.2h-1024v51.2c0 28.276-22.924 51.2-51.2 51.2s-51.2-22.924-51.2-51.2v-51.2h-256c-84.694 0-153.6-68.906-153.6-153.6v-1433.6c0-84.698 68.906-153.6 153.6-153.6h1740.8c84.698 0 153.6 68.902 153.6 153.6v1433.6c0 84.694-68.902 153.6-153.6 153.6zM153.6 1638.4h256v-153.6c0-28.276 22.924-51.2 51.2-51.2s51.2 22.924 51.2 51.2v153.6h1024v-153.6c0-28.276 22.922-51.2 51.2-51.2s51.2 22.924 51.2 51.2v153.6h256c28.23 0 51.2-22.97 51.2-51.2v-256h-1843.2v256c0 28.23 22.97 51.2 51.2 51.2zM1894.4 102.4h-1740.8c-28.23 0-51.2 22.97-51.2 51.2v1075.2h1843.2v-1075.2c0-28.23-22.97-51.2-51.2-51.2zM768 921.6h-102.4c-28.276 0-51.2 22.922-51.2 51.2s22.924 51.2 51.2 51.2h102.4c28.276 0 51.2-22.922 51.2-51.2s-22.924-51.2-51.2-51.2zM1075.2 921.6h-102.4c-28.276 0-51.2 22.922-51.2 51.2s22.924 51.2 51.2 51.2h102.4c28.278 0 51.2-22.922 51.2-51.2s-22.922-51.2-51.2-51.2zM1382.4 921.6h-102.4c-28.278 0-51.2 22.922-51.2 51.2s22.922 51.2 51.2 51.2h102.4c28.278 0 51.2-22.922 51.2-51.2s-22.922-51.2-51.2-51.2zM1689.6 921.6h-102.4c-28.278 0-51.2 22.922-51.2 51.2s22.922 51.2 51.2 51.2h102.4c28.278 0 51.2-22.922 51.2-51.2s-22.922-51.2-51.2-51.2zM460.8 716.8h-102.4c-28.276 0-51.2 22.922-51.2 51.2s22.924 51.2 51.2 51.2h102.4c28.276 0 51.2-22.922 51.2-51.2s-22.924-51.2-51.2-51.2zM768 716.8h-102.4c-28.276 0-51.2 22.922-51.2 51.2s22.924 51.2 51.2 51.2h102.4c28.276 0 51.2-22.922 51.2-51.2s-22.924-51.2-51.2-51.2zM1075.2 716.8h-102.4c-28.276 0-51.2 22.922-51.2 51.2s22.924 51.2 51.2 51.2h102.4c28.278 0 51.2-22.922 51.2-51.2s-22.922-51.2-51.2-51.2zM1382.4 716.8h-102.4c-28.278 0-51.2 22.922-51.2 51.2s22.922 51.2 51.2 51.2h102.4c28.278 0 51.2-22.922 51.2-51.2s-22.922-51.2-51.2-51.2zM1689.6 716.8h-102.4c-28.278 0-51.2 22.922-51.2 51.2s22.922 51.2 51.2 51.2h102.4c28.278 0 51.2-22.922 51.2-51.2s-22.922-51.2-51.2-51.2zM460.8 512h-102.4c-28.276 0-51.2 22.922-51.2 51.2s22.924 51.2 51.2 51.2h102.4c28.276 0 51.2-22.922 51.2-51.2s-22.924-51.2-51.2-51.2zM768 512h-102.4c-28.276 0-51.2 22.922-51.2 51.2s22.924 51.2 51.2 51.2h102.4c28.276 0 51.2-22.922 51.2-51.2s-22.924-51.2-51.2-51.2zM1075.2 512h-102.4c-28.276 0-51.2 22.922-51.2 51.2s22.924 51.2 51.2 51.2h102.4c28.278 0 51.2-22.922 51.2-51.2s-22.922-51.2-51.2-51.2zM1382.4 512h-102.4c-28.278 0-51.2 22.922-51.2 51.2s22.922 51.2 51.2 51.2h102.4c28.278 0 51.2-22.922 51.2-51.2s-22.922-51.2-51.2-51.2zM1689.6 512h-102.4c-28.278 0-51.2 22.922-51.2 51.2s22.922 51.2 51.2 51.2h102.4c28.278 0 51.2-22.922 51.2-51.2s-22.922-51.2-51.2-51.2zM460.8 307.2h-102.4c-28.276 0-51.2 22.922-51.2 51.2s22.924 51.2 51.2 51.2h102.4c28.276 0 51.2-22.922 51.2-51.2s-22.924-51.2-51.2-51.2zM768 307.2h-102.4c-28.276 0-51.2 22.922-51.2 51.2s22.924 51.2 51.2 51.2h102.4c28.276 0 51.2-22.922 51.2-51.2s-22.924-51.2-51.2-51.2zM1075.2 307.2h-102.4c-28.276 0-51.2 22.922-51.2 51.2s22.924 51.2 51.2 51.2h102.4c28.278 0 51.2-22.922 51.2-51.2s-22.922-51.2-51.2-51.2zM1382.4 307.2h-102.4c-28.278 0-51.2 22.922-51.2 51.2s22.922 51.2 51.2 51.2h102.4c28.278 0 51.2-22.922 51.2-51.2s-22.922-51.2-51.2-51.2zM1689.6 307.2h-102.4c-28.278 0-51.2 22.922-51.2 51.2s22.922 51.2 51.2 51.2h102.4c28.278 0 51.2-22.922 51.2-51.2s-22.922-51.2-51.2-51.2z" />
<glyph unicode="&#xe7a6;" glyph-name="smartphone" data-tags="smartphone, mobile, phone, cellular" d="M1075.2 102.4h-102.4c-28.276 0-51.2 22.922-51.2 51.2s22.924 51.2 51.2 51.2h102.4c28.278 0 51.2-22.922 51.2-51.2s-22.922-51.2-51.2-51.2zM1484.8-102.4h-921.6c-84.694 0-153.6 68.902-153.6 153.6v1740.8c0 84.694 68.906 153.6 153.6 153.6h921.6c84.698 0 153.6-68.906 153.6-153.6v-1740.8c0-84.698-68.902-153.6-153.6-153.6zM563.2 1843.2c-28.23 0-51.2-22.97-51.2-51.2v-1740.8c0-28.23 22.97-51.2 51.2-51.2h921.6c28.23 0 51.2 22.97 51.2 51.2v1740.8c0 28.23-22.97 51.2-51.2 51.2h-921.6zM1382.4 307.2h-716.8c-28.276 0-51.2 22.922-51.2 51.2v1331.2c0 28.276 22.924 51.2 51.2 51.2h716.8c28.278 0 51.2-22.924 51.2-51.2v-1331.2c0-28.278-22.922-51.2-51.2-51.2zM716.8 409.6h614.4v1228.8h-614.4v-1228.8z" />
<glyph unicode="&#xe807;" glyph-name="diamond2" data-tags="diamond, jewelry" d="M1935.36 1208.32l-307.2 409.6c-9.668 12.892-24.844 20.48-40.96 20.48h-1228.8c-16.116 0-31.29-7.588-40.96-20.48l-307.2-409.6c-14.678-19.572-13.462-46.79 2.902-64.972l921.6-1024c9.712-10.788 23.542-16.948 38.058-16.948s28.346 6.16 38.058 16.95l921.6 1024c16.364 18.182 17.58 45.398 2.902 64.97zM1211.184 1126.4l-238.384-794.618-238.388 794.618h476.772zM768 1228.8l204.8 273.066 204.8-273.066h-409.6zM1075.2 1536h409.6l-204.8-273.066-204.8 273.066zM665.6 1262.934l-204.8 273.066h409.6l-204.8-273.066zM563.2 1228.8h-409.6l204.8 273.066 204.8-273.066zM627.508 1126.4l230.668-768.902-692.012 768.902h461.344zM1318.092 1126.4h461.344l-692.012-768.902 230.668 768.902zM1382.4 1228.8l204.8 273.066 204.8-273.066h-409.6z" />
<glyph unicode="&#xe83a;" glyph-name="briefcase" data-tags="briefcase, suitcase, luggage" d="M1894.4 1433.6h-460.8v153.6c0 84.694-68.906 153.6-153.6 153.6h-512c-84.694 0-153.6-68.906-153.6-153.6v-153.6h-460.8c-84.694 0-153.6-68.906-153.6-153.6v-1126.4c0-84.698 68.906-153.6 153.6-153.6h1740.8c84.698 0 153.6 68.902 153.6 153.6v1126.4c0 84.694-68.902 153.6-153.6 153.6zM716.8 1587.2c0 28.23 22.97 51.2 51.2 51.2h512c28.23 0 51.2-22.97 51.2-51.2v-153.6h-614.4v153.6zM153.6 1331.2h1740.8c28.23 0 51.2-22.97 51.2-51.2v-768h-204.8v51.2c0 28.278-22.922 51.2-51.2 51.2h-204.8c-28.278 0-51.2-22.922-51.2-51.2v-51.2h-819.2v51.2c0 28.278-22.924 51.2-51.2 51.2h-204.8c-28.276 0-51.2-22.922-51.2-51.2v-51.2h-204.8v768c0 28.23 22.97 51.2 51.2 51.2zM1638.4 512v-102.4h-102.4v102.4h102.4zM512 512v-102.4h-102.4v102.4h102.4zM1894.4 102.4h-1740.8c-28.23 0-51.2 22.97-51.2 51.2v256h204.8v-51.2c0-28.278 22.924-51.2 51.2-51.2h204.8c28.276 0 51.2 22.922 51.2 51.2v51.2h819.2v-51.2c0-28.278 22.922-51.2 51.2-51.2h204.8c28.278 0 51.2 22.922 51.2 51.2v51.2h204.8v-256c0-28.23-22.97-51.2-51.2-51.2z" />
<glyph unicode="&#xe934;" glyph-name="check2" data-tags="check, checkmark" d="M563.2 153.6c-13.104 0-26.204 4.998-36.204 14.998l-512 512c-19.994 19.994-19.994 52.412 0 72.406 19.996 19.994 52.412 19.994 72.41 0l475.796-475.796 1397.398 1397.396c19.994 19.994 52.412 19.994 72.406 0 19.996-19.996 19.996-52.412 0-72.41l-1433.6-1433.6c-10-9.996-23.1-14.996-36.204-14.996z" />
<glyph unicode="&#xe93b;" glyph-name="chevron-left" data-tags="chevron-left, left" d="M1433.6-102.4c13.104 0 26.204 4.998 36.202 14.998 19.996 19.994 19.996 52.412 0 72.406l-885.396 885.396 885.396 885.398c19.996 19.994 19.996 52.412 0 72.406s-52.412 19.996-72.406 0l-921.6-921.6c-19.996-19.994-19.996-52.412 0-72.406l921.6-921.6c10-10 23.1-14.998 36.204-14.998z" />
<glyph unicode="&#xe93c;" glyph-name="chevron-right" data-tags="chevron-right, right" d="M512-102.4c-13.104 0-26.204 4.998-36.202 14.998-19.996 19.994-19.996 52.412 0 72.406l885.396 885.396-885.396 885.398c-19.996 19.994-19.996 52.412 0 72.406 19.994 19.996 52.412 19.996 72.406 0l921.6-921.6c19.996-19.994 19.996-52.412 0-72.406l-921.6-921.6c-10-10-23.1-14.998-36.204-14.998z" />
<glyph unicode="&#xea90;" glyph-name="facebook" data-tags="facebook, brand, social" d="M1216 1536h320v384h-320c-247.028 0-448-200.972-448-448v-192h-256v-384h256v-1024h384v1024h320l64 384h-384v192c0 34.692 29.308 64 64 64z" />
<glyph unicode="&#xea96;" glyph-name="twitter" data-tags="twitter, brand, tweet, social" d="M2048 1467.2c-75.2-33.6-156.4-56-241.2-66 86.8 52 153.2 134.4 184.8 232.4-81.2-48-171.2-83.2-266.8-102-76.8 81.6-186 132.4-306.8 132.4-232 0-420-188-420-420 0-32.8 3.6-64.8 10.8-95.6-349.2 17.6-658.8 184.8-866 439.2-36-62-56.8-134.4-56.8-211.2 0-145.6 74-274.4 186.8-349.6-68.8 2-133.6 21.2-190.4 52.4 0-1.6 0-3.6 0-5.2 0-203.6 144.8-373.6 337.2-412-35.2-9.6-72.4-14.8-110.8-14.8-27.2 0-53.2 2.8-79.2 7.6 53.6-166.8 208.8-288.4 392.4-292-144-112.8-324.8-180-522-180-34 0-67.2 2-100.4 6 186.4-119.6 407.2-188.8 644.4-188.8 772.8 0 1195.6 640.4 1195.6 1195.6 0 18.4-0.4 36.4-1.2 54.4 82 58.8 153.2 132.8 209.6 217.2z" />
<glyph unicode="&#xea9b;" glyph-name="rss" data-tags="feed, rss, social" d="M272.588 418.14c-150.392 0-272.584-122.668-272.584-272.152 0-150.308 122.2-271.604 272.584-271.604 150.932 0 272.988 121.296 272.988 271.604-0.004 149.484-122.048 272.152-272.988 272.152zM0.312 1224.14v-392.516c255.568 0 495.916-99.944 676.916-281.024 180.768-180.636 280.564-422.072 280.564-678.6h394.244c-0.004 745.64-606.564 1352.14-1351.724 1352.14zM0.776 1920v-392.712c911.564 0 1653.512-742.668 1653.512-1655.288h393.712c0 1128.94-918.508 2048-2047.224 2048z" />
<glyph unicode="&#xea9d;" glyph-name="youtube" data-tags="youtube, brand, social" d="M2027.6 1305.6c0 0-20 141.2-81.6 203.2-78 81.6-165.2 82-205.2 86.8-286.4 20.8-716.4 20.8-716.4 20.8h-0.8c0 0-430 0-716.4-20.8-40-4.8-127.2-5.2-205.2-86.8-61.6-62-81.2-203.2-81.2-203.2s-20.4-165.6-20.4-331.6v-155.2c0-165.6 20.4-331.6 20.4-331.6s20-141.2 81.2-203.2c78-81.6 180.4-78.8 226-87.6 164-15.6 696.4-20.4 696.4-20.4s430.4 0.8 716.8 21.2c40 4.8 127.2 5.2 205.2 86.8 61.6 62 81.6 203.2 81.6 203.2s20.4 165.6 20.4 331.6v155.2c-0.4 165.6-20.8 331.6-20.8 331.6zM812.4 630.4v575.6l553.2-288.8-553.2-286.8z" />
<glyph unicode="&#xeac3;" glyph-name="soundcloud" data-tags="soundcloud, brand, social" d="M1783.92 891.592c-36.172 0-70.696-7.040-102.128-19.712-21.012 228.716-220.58 408.12-464 408.12-59.572 0-117.364-11.26-168.636-30.328-19.92-7.404-25.156-15.040-25.156-29.832v-805.428c0-15.532 12.48-28.468 28.248-29.992 0.672-0.068 727.072-0.42 731.78-0.42 145.808 0 263.972 113.632 263.972 253.788s-118.268 253.804-264.080 253.804zM800 384h64l32 448.44-32 447.56h-64l-32-447.56zM608 384h-64l-32 325.5 32 314.5h64l32-320zM288 384h64l32 256-32 256h-64l-32-256zM32 512h64l32 128-32 128h-64l-32-128z" />
<glyph unicode="&#xeaca;" glyph-name="linkedin2" data-tags="linkedin, brand, social" d="M768 1152h354.212v-181.564h5.064c49.28 88.388 169.916 181.564 349.684 181.564 373.892 0 443.040-232.752 443.040-535.468v-616.532h-369.22v546.556c0 130.368-2.668 298.052-192.056 298.052-192.296 0-221.64-141.972-221.64-288.584v-556.024h-369.084v1152zM128 1152h384v-1152h-384v1152zM512 1472c0-106.038-85.962-192-192-192s-192 85.962-192 192c0 106.038 85.962 192 192 192s192-85.962 192-192z" />
<glyph unicode="&#xf00c;" glyph-name="check" data-tags="check" d="M1909.714 1254.856q0-45.714-32-77.714l-982.858-982.858q-32-32-77.714-32t-77.714 32l-569.142 569.142q-32 32-32 77.714t32 77.714l155.428 155.428q32 32 77.714 32t77.714-32l336-337.142 749.714 750.858q32 32 77.714 32t77.714-32l155.428-155.428q32-32 32-77.714z" />
<glyph unicode="&#xf00d;" glyph-name="close, remove, times" data-tags="close, remove, times" horiz-adv-x="1609" d="M1483.428 390.856q0-45.714-32-77.714l-155.428-155.428q-32-32-77.714-32t-77.714 32l-336 336-336-336q-32-32-77.714-32t-77.714 32l-155.428 155.428q-32 32-32 77.714t32 77.714l336 336-336 336q-32 32-32 77.714t32 77.714l155.428 155.428q32 32 77.714 32t77.714-32l336-336 336 336q32 32 77.714 32t77.714-32l155.428-155.428q32-32 32-77.714t-32-77.714l-336-336 336-336q32-32 32-77.714z" />
<glyph unicode="" glyph-name="close, remove, times" data-tags="close, remove, times" horiz-adv-x="1609" d="M1483.428 390.856q0-45.714-32-77.714l-155.428-155.428q-32-32-77.714-32t-77.714 32l-336 336-336-336q-32-32-77.714-32t-77.714 32l-155.428 155.428q-32 32-32 77.714t32 77.714l336 336-336 336q-32 32-32 77.714t32 77.714l155.428 155.428q32 32 77.714 32t77.714-32l336-336 336 336q32 32 77.714 32t77.714-32l155.428-155.428q32-32 32-77.714t-32-77.714l-336-336 336-336q32-32 32-77.714z" />
<glyph unicode="youtube" glyph-name="youtube" data-tags="youtube, brand, social" d="M2027.6 1305.6c0 0-20 141.2-81.6 203.2-78 81.6-165.2 82-205.2 86.8-286.4 20.8-716.4 20.8-716.4 20.8h-0.8c0 0-430 0-716.4-20.8-40-4.8-127.2-5.2-205.2-86.8-61.6-62-81.2-203.2-81.2-203.2s-20.4-165.6-20.4-331.6v-155.2c0-165.6 20.4-331.6 20.4-331.6s20-141.2 81.2-203.2c78-81.6 180.4-78.8 226-87.6 164-15.6 696.4-20.4 696.4-20.4s430.4 0.8 716.8 21.2c40 4.8 127.2 5.2 205.2 86.8 61.6 62 81.6 203.2 81.6 203.2s20.4 165.6 20.4 331.6v155.2c-0.4 165.6-20.8 331.6-20.8 331.6zM812.4 630.4v575.6l553.2-288.8-553.2-286.8z" />
<glyph unicode="write3" glyph-name="pen" data-tags="pen, write, edit" d="M2004.202 1901.804c-28.624 28.628-67.1 43.14-114.356 43.14-77.104 0-180.78-40.346-309.382-120.192-41.204 43.562-119.504 110.298-218.204 118.314-78.79 6.394-153.114-24.71-220.864-92.46-143.914-143.914-214.732-319.584-261.596-435.828-15.924-39.5-35.74-88.666-45.604-98.79-3.356-3.356-13.536-13.532-31.092 1.284-20.068 18.922-51.674 18.564-71.308-1.066-19.996-19.996-19.996-52.412 0-72.406 8.388-8.39 29.952-24.652 57.572-32.4 11.104-3.116 22.128-4.656 32.938-4.656 12.982 0 25.652 2.25 37.786 6.628-14.054-14.404-28.084-28.906-42.070-43.514-360.106-376.156-763.924-892.246-817.322-1212.636-2.72-16.314 2.608-32.932 14.298-44.62 9.68-9.684 22.74-14.998 36.204-14.998 2.796 0 5.612 0.228 8.42 0.698 133.932 22.324 310.518 107.062 524.842 251.868 189.594 128.092 399.932 297.74 608.278 490.596 203.204 188.090 388.556 383.222 536.020 564.304 110.186 135.3 251.748 328.484 300.448 480.442 30.804 96.128 22.39 168.902-25.004 216.298zM1213.802 1778.198c46.052 46.052 91.782 66.618 139.78 62.836 57.404-4.502 107.862-42.822 139.786-73.75-25.248-17.564-51.284-36.394-78.134-56.538-145.852-109.42-311.312-254.822-476.16-417.862 10.988 22.336 22.164 50.020 35.706 83.606 43.754 108.534 109.872 272.554 239.024 401.708zM310.868 384.726l176.342-176.342c-139.82-91.292-264.58-156.278-365.564-189.162 32.966 101.030 98.15 225.942 189.222 365.504zM1123.178 715.908c-192.080-177.798-379.868-330.532-549.584-449.094l-204.326 204.33c135.28 193.792 314.49 410.39 522.724 627.9 241.85 252.624 480.774 461.27 671.988 592.58l229.798-229.804c-146.532-213.594-387.636-483.99-670.598-745.91zM1931.686 1716.756c-15.158-47.302-42.764-103.718-81.012-167.024l-198.806 198.806c100.148 60.564 182.294 94.006 237.978 94.006 28.8 0 38.698-9.898 41.948-13.148 23.716-23.712 10.112-80.752-0.108-112.64z" />
<glyph unicode="twitter" glyph-name="twitter" data-tags="twitter, brand, tweet, social" d="M2048 1467.2c-75.2-33.6-156.4-56-241.2-66 86.8 52 153.2 134.4 184.8 232.4-81.2-48-171.2-83.2-266.8-102-76.8 81.6-186 132.4-306.8 132.4-232 0-420-188-420-420 0-32.8 3.6-64.8 10.8-95.6-349.2 17.6-658.8 184.8-866 439.2-36-62-56.8-134.4-56.8-211.2 0-145.6 74-274.4 186.8-349.6-68.8 2-133.6 21.2-190.4 52.4 0-1.6 0-3.6 0-5.2 0-203.6 144.8-373.6 337.2-412-35.2-9.6-72.4-14.8-110.8-14.8-27.2 0-53.2 2.8-79.2 7.6 53.6-166.8 208.8-288.4 392.4-292-144-112.8-324.8-180-522-180-34 0-67.2 2-100.4 6 186.4-119.6 407.2-188.8 644.4-188.8 772.8 0 1195.6 640.4 1195.6 1195.6 0 18.4-0.4 36.4-1.2 54.4 82 58.8 153.2 132.8 209.6 217.2z" />
<glyph unicode="telephone" glyph-name="telephone" data-tags="telephone, phone, call, contact" d="M1638.4-102.4c-181.382 0-374.308 51.398-573.412 152.772-183.588 93.472-364.96 227.308-524.516 387.044-159.526 159.706-293.19 341.248-386.544 524.996-101.216 199.22-152.538 392.204-152.538 573.59 0 117.548 109.53 231.1 156.62 274.464 67.7 62.34 174.208 135.136 251.588 135.136 38.49 0 83.606-25.178 141.988-79.232 43.564-40.34 92.54-95.020 141.628-158.134 29.588-38.042 177.184-232.534 177.184-325.834 0-76.54-86.5-129.706-178.074-185.996-35.388-21.75-71.984-44.244-98.452-65.46-28.228-22.63-33.29-34.576-34.122-37.258 97.204-242.256 394.282-539.302 636.406-636.368 2.17 0.682 14.134 5.398 37.184 34.15 21.216 26.468 43.708 63.062 65.46 98.454 56.288 91.578 109.452 178.076 185.996 178.076 93.296 0 287.792-147.596 325.834-177.184 63.114-49.092 117.796-98.064 158.134-141.632 54.058-58.378 79.232-103.494 79.232-141.984 0-77.402-72.756-184.23-135.056-252.198-43.386-47.324-156.982-157.402-274.544-157.402zM408.954 1843.194c-27.462-0.524-101.268-34.108-181.578-108.058-76.23-70.198-123.584-146.5-123.584-199.136 0-689.046 846.186-1536 1534.608-1536 52.56 0 128.836 47.59 199.056 124.198 74.006 80.732 107.612 154.826 108.138 182.356-3.324 19.456-57.14 95.126-204.464 208.566-126.644 97.524-229.398 149.772-255.802 150.474-1.85-0.548-13.312-4.934-36.554-34.444-20.208-25.664-41.824-60.836-62.732-94.848-57.366-93.332-111.548-181.488-190.244-181.488-12.672 0-25.194 2.438-37.216 7.248-268.752 107.5-586.62 425.37-694.122 694.122-12.912 32.276-14.97 82.828 48.544 140.368 33.764 30.586 80.5 59.312 125.696 87.092 34.012 20.906 69.18 42.522 94.844 62.732 29.51 23.238 33.9 34.704 34.444 36.554-0.704 26.406-52.95 129.158-150.474 255.804-113.44 147.318-189.108 201.136-208.564 204.46z" />
<glyph unicode="suitcase" glyph-name="briefcase" data-tags="briefcase, suitcase, luggage" d="M1894.4 1433.6h-460.8v153.6c0 84.694-68.906 153.6-153.6 153.6h-512c-84.694 0-153.6-68.906-153.6-153.6v-153.6h-460.8c-84.694 0-153.6-68.906-153.6-153.6v-1126.4c0-84.698 68.906-153.6 153.6-153.6h1740.8c84.698 0 153.6 68.902 153.6 153.6v1126.4c0 84.694-68.902 153.6-153.6 153.6zM716.8 1587.2c0 28.23 22.97 51.2 51.2 51.2h512c28.23 0 51.2-22.97 51.2-51.2v-153.6h-614.4v153.6zM153.6 1331.2h1740.8c28.23 0 51.2-22.97 51.2-51.2v-768h-204.8v51.2c0 28.278-22.922 51.2-51.2 51.2h-204.8c-28.278 0-51.2-22.922-51.2-51.2v-51.2h-819.2v51.2c0 28.278-22.924 51.2-51.2 51.2h-204.8c-28.276 0-51.2-22.922-51.2-51.2v-51.2h-204.8v768c0 28.23 22.97 51.2 51.2 51.2zM1638.4 512v-102.4h-102.4v102.4h102.4zM512 512v-102.4h-102.4v102.4h102.4zM1894.4 102.4h-1740.8c-28.23 0-51.2 22.97-51.2 51.2v256h204.8v-51.2c0-28.278 22.924-51.2 51.2-51.2h204.8c28.276 0 51.2 22.922 51.2 51.2v51.2h819.2v-51.2c0-28.278 22.922-51.2 51.2-51.2h204.8c28.278 0 51.2 22.922 51.2 51.2v51.2h204.8v-256c0-28.23-22.97-51.2-51.2-51.2z" />
<glyph unicode="soundcloud" glyph-name="soundcloud" data-tags="soundcloud, brand, social" d="M1783.92 891.592c-36.172 0-70.696-7.040-102.128-19.712-21.012 228.716-220.58 408.12-464 408.12-59.572 0-117.364-11.26-168.636-30.328-19.92-7.404-25.156-15.040-25.156-29.832v-805.428c0-15.532 12.48-28.468 28.248-29.992 0.672-0.068 727.072-0.42 731.78-0.42 145.808 0 263.972 113.632 263.972 253.788s-118.268 253.804-264.080 253.804zM800 384h64l32 448.44-32 447.56h-64l-32-447.56zM608 384h-64l-32 325.5 32 314.5h64l32-320zM288 384h64l32 256-32 256h-64l-32-256zM32 512h64l32 128-32 128h-64l-32-128z" />
<glyph unicode="smartphone" glyph-name="smartphone" data-tags="smartphone, mobile, phone, cellular" d="M1075.2 102.4h-102.4c-28.276 0-51.2 22.922-51.2 51.2s22.924 51.2 51.2 51.2h102.4c28.278 0 51.2-22.922 51.2-51.2s-22.922-51.2-51.2-51.2zM1484.8-102.4h-921.6c-84.694 0-153.6 68.902-153.6 153.6v1740.8c0 84.694 68.906 153.6 153.6 153.6h921.6c84.698 0 153.6-68.906 153.6-153.6v-1740.8c0-84.698-68.902-153.6-153.6-153.6zM563.2 1843.2c-28.23 0-51.2-22.97-51.2-51.2v-1740.8c0-28.23 22.97-51.2 51.2-51.2h921.6c28.23 0 51.2 22.97 51.2 51.2v1740.8c0 28.23-22.97 51.2-51.2 51.2h-921.6zM1382.4 307.2h-716.8c-28.276 0-51.2 22.922-51.2 51.2v1331.2c0 28.276 22.924 51.2 51.2 51.2h716.8c28.278 0 51.2-22.924 51.2-51.2v-1331.2c0-28.278-22.922-51.2-51.2-51.2zM716.8 409.6h614.4v1228.8h-614.4v-1228.8z" />
<glyph unicode="rss" glyph-name="rss" data-tags="feed, rss, social" d="M272.588 418.14c-150.392 0-272.584-122.668-272.584-272.152 0-150.308 122.2-271.604 272.584-271.604 150.932 0 272.988 121.296 272.988 271.604-0.004 149.484-122.048 272.152-272.988 272.152zM0.312 1224.14v-392.516c255.568 0 495.916-99.944 676.916-281.024 180.768-180.636 280.564-422.072 280.564-678.6h394.244c-0.004 745.64-606.564 1352.14-1351.724 1352.14zM0.776 1920v-392.712c911.564 0 1653.512-742.668 1653.512-1655.288h393.712c0 1128.94-918.508 2048-2047.224 2048z" />
<glyph unicode="right6" glyph-name="chevron-right" data-tags="chevron-right, right" d="M512-102.4c-13.104 0-26.204 4.998-36.202 14.998-19.996 19.994-19.996 52.412 0 72.406l885.396 885.396-885.396 885.398c-19.996 19.994-19.996 52.412 0 72.406 19.994 19.996 52.412 19.996 72.406 0l921.6-921.6c19.996-19.994 19.996-52.412 0-72.406l-921.6-921.6c-10-10-23.1-14.998-36.204-14.998z" />
<glyph unicode="phone" glyph-name="telephone" data-tags="telephone, phone, call, contact" d="M1638.4-102.4c-181.382 0-374.308 51.398-573.412 152.772-183.588 93.472-364.96 227.308-524.516 387.044-159.526 159.706-293.19 341.248-386.544 524.996-101.216 199.22-152.538 392.204-152.538 573.59 0 117.548 109.53 231.1 156.62 274.464 67.7 62.34 174.208 135.136 251.588 135.136 38.49 0 83.606-25.178 141.988-79.232 43.564-40.34 92.54-95.020 141.628-158.134 29.588-38.042 177.184-232.534 177.184-325.834 0-76.54-86.5-129.706-178.074-185.996-35.388-21.75-71.984-44.244-98.452-65.46-28.228-22.63-33.29-34.576-34.122-37.258 97.204-242.256 394.282-539.302 636.406-636.368 2.17 0.682 14.134 5.398 37.184 34.15 21.216 26.468 43.708 63.062 65.46 98.454 56.288 91.578 109.452 178.076 185.996 178.076 93.296 0 287.792-147.596 325.834-177.184 63.114-49.092 117.796-98.064 158.134-141.632 54.058-58.378 79.232-103.494 79.232-141.984 0-77.402-72.756-184.23-135.056-252.198-43.386-47.324-156.982-157.402-274.544-157.402zM408.954 1843.194c-27.462-0.524-101.268-34.108-181.578-108.058-76.23-70.198-123.584-146.5-123.584-199.136 0-689.046 846.186-1536 1534.608-1536 52.56 0 128.836 47.59 199.056 124.198 74.006 80.732 107.612 154.826 108.138 182.356-3.324 19.456-57.14 95.126-204.464 208.566-126.644 97.524-229.398 149.772-255.802 150.474-1.85-0.548-13.312-4.934-36.554-34.444-20.208-25.664-41.824-60.836-62.732-94.848-57.366-93.332-111.548-181.488-190.244-181.488-12.672 0-25.194 2.438-37.216 7.248-268.752 107.5-586.62 425.37-694.122 694.122-12.912 32.276-14.97 82.828 48.544 140.368 33.764 30.586 80.5 59.312 125.696 87.092 34.012 20.906 69.18 42.522 94.844 62.732 29.51 23.238 33.9 34.704 34.444 36.554-0.704 26.406-52.95 129.158-150.474 255.804-113.44 147.318-189.108 201.136-208.564 204.46z" />
<glyph unicode="pen" glyph-name="pen" data-tags="pen, write, edit" d="M2004.202 1901.804c-28.624 28.628-67.1 43.14-114.356 43.14-77.104 0-180.78-40.346-309.382-120.192-41.204 43.562-119.504 110.298-218.204 118.314-78.79 6.394-153.114-24.71-220.864-92.46-143.914-143.914-214.732-319.584-261.596-435.828-15.924-39.5-35.74-88.666-45.604-98.79-3.356-3.356-13.536-13.532-31.092 1.284-20.068 18.922-51.674 18.564-71.308-1.066-19.996-19.996-19.996-52.412 0-72.406 8.388-8.39 29.952-24.652 57.572-32.4 11.104-3.116 22.128-4.656 32.938-4.656 12.982 0 25.652 2.25 37.786 6.628-14.054-14.404-28.084-28.906-42.070-43.514-360.106-376.156-763.924-892.246-817.322-1212.636-2.72-16.314 2.608-32.932 14.298-44.62 9.68-9.684 22.74-14.998 36.204-14.998 2.796 0 5.612 0.228 8.42 0.698 133.932 22.324 310.518 107.062 524.842 251.868 189.594 128.092 399.932 297.74 608.278 490.596 203.204 188.090 388.556 383.222 536.020 564.304 110.186 135.3 251.748 328.484 300.448 480.442 30.804 96.128 22.39 168.902-25.004 216.298zM1213.802 1778.198c46.052 46.052 91.782 66.618 139.78 62.836 57.404-4.502 107.862-42.822 139.786-73.75-25.248-17.564-51.284-36.394-78.134-56.538-145.852-109.42-311.312-254.822-476.16-417.862 10.988 22.336 22.164 50.020 35.706 83.606 43.754 108.534 109.872 272.554 239.024 401.708zM310.868 384.726l176.342-176.342c-139.82-91.292-264.58-156.278-365.564-189.162 32.966 101.030 98.15 225.942 189.222 365.504zM1123.178 715.908c-192.080-177.798-379.868-330.532-549.584-449.094l-204.326 204.33c135.28 193.792 314.49 410.39 522.724 627.9 241.85 252.624 480.774 461.27 671.988 592.58l229.798-229.804c-146.532-213.594-387.636-483.99-670.598-745.91zM1931.686 1716.756c-15.158-47.302-42.764-103.718-81.012-167.024l-198.806 198.806c100.148 60.564 182.294 94.006 237.978 94.006 28.8 0 38.698-9.898 41.948-13.148 23.716-23.712 10.112-80.752-0.108-112.64z" />
<glyph unicode="mobile2" glyph-name="smartphone" data-tags="smartphone, mobile, phone, cellular" d="M1075.2 102.4h-102.4c-28.276 0-51.2 22.922-51.2 51.2s22.924 51.2 51.2 51.2h102.4c28.278 0 51.2-22.922 51.2-51.2s-22.922-51.2-51.2-51.2zM1484.8-102.4h-921.6c-84.694 0-153.6 68.902-153.6 153.6v1740.8c0 84.694 68.906 153.6 153.6 153.6h921.6c84.698 0 153.6-68.906 153.6-153.6v-1740.8c0-84.698-68.902-153.6-153.6-153.6zM563.2 1843.2c-28.23 0-51.2-22.97-51.2-51.2v-1740.8c0-28.23 22.97-51.2 51.2-51.2h921.6c28.23 0 51.2 22.97 51.2 51.2v1740.8c0 28.23-22.97 51.2-51.2 51.2h-921.6zM1382.4 307.2h-716.8c-28.276 0-51.2 22.922-51.2 51.2v1331.2c0 28.276 22.924 51.2 51.2 51.2h716.8c28.278 0 51.2-22.924 51.2-51.2v-1331.2c0-28.278-22.922-51.2-51.2-51.2zM716.8 409.6h614.4v1228.8h-614.4v-1228.8z" />
<glyph unicode="mail2" glyph-name="envelope" data-tags="envelope, mail, letter, email" d="M1792 1331.2h-1638.4c-84.694 0-153.6-68.906-153.6-153.6v-921.6c0-84.698 68.906-153.6 153.6-153.6h1638.4c84.698 0 153.6 68.902 153.6 153.6v921.6c0 84.694-68.902 153.6-153.6 153.6zM1792 1228.8c3.028 0 5.98-0.316 8.868-0.822l-771.264-514.18c-29.724-19.814-83.876-19.814-113.604 0l-771.268 514.18c2.886 0.506 5.84 0.822 8.868 0.822h1638.4zM1792 204.8h-1638.4c-28.23 0-51.2 22.97-51.2 51.2v877.132l756.8-504.534c31.85-21.236 72.726-31.85 113.6-31.85s81.754 10.614 113.604 31.85l756.796 504.534v-877.132c0-28.23-22.97-51.2-51.2-51.2z" />
<glyph unicode="linkedin2" glyph-name="linkedin2" data-tags="linkedin, brand, social" d="M768 1152h354.212v-181.564h5.064c49.28 88.388 169.916 181.564 349.684 181.564 373.892 0 443.040-232.752 443.040-535.468v-616.532h-369.22v546.556c0 130.368-2.668 298.052-192.056 298.052-192.296 0-221.64-141.972-221.64-288.584v-556.024h-369.084v1152zM128 1152h384v-1152h-384v1152zM512 1472c0-106.038-85.962-192-192-192s-192 85.962-192 192c0 106.038 85.962 192 192 192s192-85.962 192-192z" />
<glyph unicode="license2" glyph-name="license2" data-tags="license, certificate" d="M1894.4 102.4h-1740.8c-84.694 0-153.6 68.902-153.6 153.6v1331.2c0 84.694 68.906 153.6 153.6 153.6h1740.8c84.698 0 153.6-68.906 153.6-153.6v-1331.2c0-84.698-68.902-153.6-153.6-153.6zM153.6 1638.4c-28.23 0-51.2-22.97-51.2-51.2v-1331.2c0-28.23 22.97-51.2 51.2-51.2h1740.8c28.23 0 51.2 22.97 51.2 51.2v1331.2c0 28.23-22.97 51.2-51.2 51.2h-1740.8zM972.8 1331.2h-614.4c-28.276 0-51.2 22.924-51.2 51.2s22.924 51.2 51.2 51.2h614.4c28.276 0 51.2-22.924 51.2-51.2s-22.924-51.2-51.2-51.2zM972.8 1024h-614.4c-28.276 0-51.2 22.922-51.2 51.2s22.924 51.2 51.2 51.2h614.4c28.276 0 51.2-22.922 51.2-51.2s-22.924-51.2-51.2-51.2zM972.8 819.2h-614.4c-28.276 0-51.2 22.922-51.2 51.2s22.924 51.2 51.2 51.2h614.4c28.276 0 51.2-22.922 51.2-51.2s-22.924-51.2-51.2-51.2zM972.8 614.4h-614.4c-28.276 0-51.2 22.922-51.2 51.2s22.924 51.2 51.2 51.2h614.4c28.276 0 51.2-22.922 51.2-51.2s-22.924-51.2-51.2-51.2zM870.4 409.6h-512c-28.276 0-51.2 22.922-51.2 51.2s22.924 51.2 51.2 51.2h512c28.276 0 51.2-22.922 51.2-51.2s-22.924-51.2-51.2-51.2zM1837.354 1275.514l-83.292 60.516-31.818 97.914h-102.95l-83.292 60.516-83.29-60.516h-102.95l-31.818-97.914-83.292-60.516 31.818-97.914-31.818-97.914 83.292-60.518 13.504-41.548c-0.154-1.588-0.246-3.194-0.246-4.82v-512c0-20.71 12.474-39.38 31.606-47.302 19.136-7.93 41.156-3.54 55.798 11.1l117.396 117.396 117.398-117.398c9.796-9.798 22.886-15.002 36.214-14.998 6.596 0 13.248 1.274 19.58 3.898 19.132 7.926 31.606 26.596 31.606 47.306v512c0 1.626-0.092 3.232-0.244 4.82l13.504 41.548 83.292 60.518-31.82 97.914 31.82 97.914zM1355.028 1236.4l50.020 36.34 19.108 58.8h61.824l50.022 36.346 50.022-36.342h61.824l19.108-58.8 50.020-36.34-19.108-58.804 19.108-58.8-50.020-36.342-19.108-58.8h-61.824l-50.022-36.346-50.022 36.342h-61.824l-19.108 58.8-50.020 36.342 19.108 58.804-19.108 58.8zM1572.202 650.602c-19.994 19.994-52.412 19.994-72.406 0l-66.196-66.196v336.852h19.11l83.29-60.516 83.29 60.512h19.11v-336.852l-66.198 66.198z" />
<glyph unicode="left8" glyph-name="chevron-left" data-tags="chevron-left, left" d="M1433.6-102.4c13.104 0 26.204 4.998 36.202 14.998 19.996 19.994 19.996 52.412 0 72.406l-885.396 885.396 885.396 885.398c19.996 19.994 19.996 52.412 0 72.406s-52.412 19.996-72.406 0l-921.6-921.6c-19.996-19.994-19.996-52.412 0-72.406l921.6-921.6c10-10 23.1-14.998 36.204-14.998z" />
<glyph unicode="jewelry2" glyph-name="diamond2" data-tags="diamond, jewelry" d="M1935.36 1208.32l-307.2 409.6c-9.668 12.892-24.844 20.48-40.96 20.48h-1228.8c-16.116 0-31.29-7.588-40.96-20.48l-307.2-409.6c-14.678-19.572-13.462-46.79 2.902-64.972l921.6-1024c9.712-10.788 23.542-16.948 38.058-16.948s28.346 6.16 38.058 16.95l921.6 1024c16.364 18.182 17.58 45.398 2.902 64.97zM1211.184 1126.4l-238.384-794.618-238.388 794.618h476.772zM768 1228.8l204.8 273.066 204.8-273.066h-409.6zM1075.2 1536h409.6l-204.8-273.066-204.8 273.066zM665.6 1262.934l-204.8 273.066h409.6l-204.8-273.066zM563.2 1228.8h-409.6l204.8 273.066 204.8-273.066zM627.508 1126.4l230.668-768.902-692.012 768.902h461.344zM1318.092 1126.4h461.344l-692.012-768.902 230.668 768.902zM1382.4 1228.8l204.8 273.066 204.8-273.066h-409.6z" />
<glyph unicode="feed2" glyph-name="rss" data-tags="feed, rss, social" d="M272.588 418.14c-150.392 0-272.584-122.668-272.584-272.152 0-150.308 122.2-271.604 272.584-271.604 150.932 0 272.988 121.296 272.988 271.604-0.004 149.484-122.048 272.152-272.988 272.152zM0.312 1224.14v-392.516c255.568 0 495.916-99.944 676.916-281.024 180.768-180.636 280.564-422.072 280.564-678.6h394.244c-0.004 745.64-606.564 1352.14-1351.724 1352.14zM0.776 1920v-392.712c911.564 0 1653.512-742.668 1653.512-1655.288h393.712c0 1128.94-918.508 2048-2047.224 2048z" />
<glyph unicode="facebook" glyph-name="facebook" data-tags="facebook, brand, social" d="M1216 1536h320v384h-320c-247.028 0-448-200.972-448-448v-192h-256v-384h256v-1024h384v1024h320l64 384h-384v192c0 34.692 29.308 64 64 64z" />
<glyph unicode="envelope" glyph-name="envelope" data-tags="envelope, mail, letter, email" d="M1792 1331.2h-1638.4c-84.694 0-153.6-68.906-153.6-153.6v-921.6c0-84.698 68.906-153.6 153.6-153.6h1638.4c84.698 0 153.6 68.902 153.6 153.6v921.6c0 84.694-68.902 153.6-153.6 153.6zM1792 1228.8c3.028 0 5.98-0.316 8.868-0.822l-771.264-514.18c-29.724-19.814-83.876-19.814-113.604 0l-771.268 514.18c2.886 0.506 5.84 0.822 8.868 0.822h1638.4zM1792 204.8h-1638.4c-28.23 0-51.2 22.97-51.2 51.2v877.132l756.8-504.534c31.85-21.236 72.726-31.85 113.6-31.85s81.754 10.614 113.604 31.85l756.796 504.534v-877.132c0-28.23-22.97-51.2-51.2-51.2z" />
<glyph unicode="diamond2" glyph-name="diamond2" data-tags="diamond, jewelry" d="M1935.36 1208.32l-307.2 409.6c-9.668 12.892-24.844 20.48-40.96 20.48h-1228.8c-16.116 0-31.29-7.588-40.96-20.48l-307.2-409.6c-14.678-19.572-13.462-46.79 2.902-64.972l921.6-1024c9.712-10.788 23.542-16.948 38.058-16.948s28.346 6.16 38.058 16.95l921.6 1024c16.364 18.182 17.58 45.398 2.902 64.97zM1211.184 1126.4l-238.384-794.618-238.388 794.618h476.772zM768 1228.8l204.8 273.066 204.8-273.066h-409.6zM1075.2 1536h409.6l-204.8-273.066-204.8 273.066zM665.6 1262.934l-204.8 273.066h409.6l-204.8-273.066zM563.2 1228.8h-409.6l204.8 273.066 204.8-273.066zM627.508 1126.4l230.668-768.902-692.012 768.902h461.344zM1318.092 1126.4h461.344l-692.012-768.902 230.668 768.902zM1382.4 1228.8l204.8 273.066 204.8-273.066h-409.6z" />
<glyph unicode="cloud9" glyph-name="cloud-cross" data-tags="cloud-cross, cloud, error, fail" d="M1638.4 307.2h-460.8c-28.278 0-51.2 22.922-51.2 51.2s22.922 51.2 51.2 51.2h460.8c169.392 0 307.2 137.808 307.2 307.2s-137.808 307.2-307.2 307.2c-35.152 0-69.594-5.872-102.362-17.452-22.202-7.844-46.902 0.468-59.844 20.15-12.938 19.68-10.778 45.654 5.232 62.928 35.19 37.972 54.572 87.398 54.572 139.174 0 112.928-91.872 204.8-204.8 204.8-107.994 0-197.776-84.324-204.396-191.972-1.334-21.716-16.25-40.214-37.188-46.128-20.948-5.92-43.328 2.054-55.824 19.86-95.914 136.652-252.694 218.24-419.392 218.24-282.316 0-512-229.68-512-512 0-106.14 32.172-207.94 93.044-294.394 16.278-23.12 10.732-55.060-12.388-71.34-23.116-16.272-55.062-10.732-71.34 12.39-73.084 103.802-111.716 225.984-111.716 353.344 0 338.78 275.62 614.4 614.4 614.4 164.966 0 321.834-66.572 436.298-181.866 48.186 107.492 156.32 181.866 280.502 181.866 169.392 0 307.2-137.808 307.2-307.2 0-35.42-6.048-70.112-17.636-102.772 5.862 0.246 11.74 0.372 17.636 0.372 225.852 0 409.6-183.748 409.6-409.6s-183.748-409.6-409.6-409.6zM738.006 614.4l219.798 219.798c19.996 19.994 19.996 52.412 0 72.406s-52.412 19.994-72.406 0l-219.798-219.798-219.798 219.798c-19.994 19.994-52.412 19.994-72.406 0-19.996-19.994-19.996-52.412 0-72.406l219.798-219.798-219.798-219.798c-19.996-19.994-19.996-52.412 0-72.406 10-9.996 23.1-14.996 36.204-14.996s26.204 4.998 36.202 14.998l219.798 219.796 219.798-219.798c9.996-9.996 23.098-14.996 36.202-14.996s26.204 4.998 36.202 14.998c19.996 19.994 19.996 52.412 0 72.406l-219.796 219.796z" />
<glyph unicode="cloud-cross" glyph-name="cloud-cross" data-tags="cloud-cross, cloud, error, fail" d="M1638.4 307.2h-460.8c-28.278 0-51.2 22.922-51.2 51.2s22.922 51.2 51.2 51.2h460.8c169.392 0 307.2 137.808 307.2 307.2s-137.808 307.2-307.2 307.2c-35.152 0-69.594-5.872-102.362-17.452-22.202-7.844-46.902 0.468-59.844 20.15-12.938 19.68-10.778 45.654 5.232 62.928 35.19 37.972 54.572 87.398 54.572 139.174 0 112.928-91.872 204.8-204.8 204.8-107.994 0-197.776-84.324-204.396-191.972-1.334-21.716-16.25-40.214-37.188-46.128-20.948-5.92-43.328 2.054-55.824 19.86-95.914 136.652-252.694 218.24-419.392 218.24-282.316 0-512-229.68-512-512 0-106.14 32.172-207.94 93.044-294.394 16.278-23.12 10.732-55.060-12.388-71.34-23.116-16.272-55.062-10.732-71.34 12.39-73.084 103.802-111.716 225.984-111.716 353.344 0 338.78 275.62 614.4 614.4 614.4 164.966 0 321.834-66.572 436.298-181.866 48.186 107.492 156.32 181.866 280.502 181.866 169.392 0 307.2-137.808 307.2-307.2 0-35.42-6.048-70.112-17.636-102.772 5.862 0.246 11.74 0.372 17.636 0.372 225.852 0 409.6-183.748 409.6-409.6s-183.748-409.6-409.6-409.6zM738.006 614.4l219.798 219.798c19.996 19.994 19.996 52.412 0 72.406s-52.412 19.994-72.406 0l-219.798-219.798-219.798 219.798c-19.994 19.994-52.412 19.994-72.406 0-19.996-19.994-19.996-52.412 0-72.406l219.798-219.798-219.798-219.798c-19.996-19.994-19.996-52.412 0-72.406 10-9.996 23.1-14.996 36.204-14.996s26.204 4.998 36.202 14.998l219.798 219.796 219.798-219.798c9.996-9.996 23.098-14.996 36.202-14.996s26.204 4.998 36.202 14.998c19.996 19.994 19.996 52.412 0 72.406l-219.796 219.796z" />
<glyph unicode="chevron-right" glyph-name="chevron-right" data-tags="chevron-right, right" d="M512-102.4c-13.104 0-26.204 4.998-36.202 14.998-19.996 19.994-19.996 52.412 0 72.406l885.396 885.396-885.396 885.398c-19.996 19.994-19.996 52.412 0 72.406 19.994 19.996 52.412 19.996 72.406 0l921.6-921.6c19.996-19.994 19.996-52.412 0-72.406l-921.6-921.6c-10-10-23.1-14.998-36.204-14.998z" />
<glyph unicode="chevron-left" glyph-name="chevron-left" data-tags="chevron-left, left" d="M1433.6-102.4c13.104 0 26.204 4.998 36.202 14.998 19.996 19.994 19.996 52.412 0 72.406l-885.396 885.396 885.396 885.398c19.996 19.994 19.996 52.412 0 72.406s-52.412 19.996-72.406 0l-921.6-921.6c-19.996-19.994-19.996-52.412 0-72.406l921.6-921.6c10-10 23.1-14.998 36.204-14.998z" />
<glyph unicode="checkmark" glyph-name="check2" data-tags="check, checkmark" d="M563.2 153.6c-13.104 0-26.204 4.998-36.204 14.998l-512 512c-19.994 19.994-19.994 52.412 0 72.406 19.996 19.994 52.412 19.994 72.41 0l475.796-475.796 1397.398 1397.396c19.994 19.994 52.412 19.994 72.406 0 19.996-19.996 19.996-52.412 0-72.41l-1433.6-1433.6c-10-9.996-23.1-14.996-36.204-14.996z" />
<glyph unicode="check" glyph-name="check2" data-tags="check, checkmark" d="M563.2 153.6c-13.104 0-26.204 4.998-36.204 14.998l-512 512c-19.994 19.994-19.994 52.412 0 72.406 19.996 19.994 52.412 19.994 72.41 0l475.796-475.796 1397.398 1397.396c19.994 19.994 52.412 19.994 72.406 0 19.996-19.996 19.996-52.412 0-72.41l-1433.6-1433.6c-10-9.996-23.1-14.996-36.204-14.996z" />
<glyph unicode="certificate2" glyph-name="license2" data-tags="license, certificate" d="M1894.4 102.4h-1740.8c-84.694 0-153.6 68.902-153.6 153.6v1331.2c0 84.694 68.906 153.6 153.6 153.6h1740.8c84.698 0 153.6-68.906 153.6-153.6v-1331.2c0-84.698-68.902-153.6-153.6-153.6zM153.6 1638.4c-28.23 0-51.2-22.97-51.2-51.2v-1331.2c0-28.23 22.97-51.2 51.2-51.2h1740.8c28.23 0 51.2 22.97 51.2 51.2v1331.2c0 28.23-22.97 51.2-51.2 51.2h-1740.8zM972.8 1331.2h-614.4c-28.276 0-51.2 22.924-51.2 51.2s22.924 51.2 51.2 51.2h614.4c28.276 0 51.2-22.924 51.2-51.2s-22.924-51.2-51.2-51.2zM972.8 1024h-614.4c-28.276 0-51.2 22.922-51.2 51.2s22.924 51.2 51.2 51.2h614.4c28.276 0 51.2-22.922 51.2-51.2s-22.924-51.2-51.2-51.2zM972.8 819.2h-614.4c-28.276 0-51.2 22.922-51.2 51.2s22.924 51.2 51.2 51.2h614.4c28.276 0 51.2-22.922 51.2-51.2s-22.924-51.2-51.2-51.2zM972.8 614.4h-614.4c-28.276 0-51.2 22.922-51.2 51.2s22.924 51.2 51.2 51.2h614.4c28.276 0 51.2-22.922 51.2-51.2s-22.924-51.2-51.2-51.2zM870.4 409.6h-512c-28.276 0-51.2 22.922-51.2 51.2s22.924 51.2 51.2 51.2h512c28.276 0 51.2-22.922 51.2-51.2s-22.924-51.2-51.2-51.2zM1837.354 1275.514l-83.292 60.516-31.818 97.914h-102.95l-83.292 60.516-83.29-60.516h-102.95l-31.818-97.914-83.292-60.516 31.818-97.914-31.818-97.914 83.292-60.518 13.504-41.548c-0.154-1.588-0.246-3.194-0.246-4.82v-512c0-20.71 12.474-39.38 31.606-47.302 19.136-7.93 41.156-3.54 55.798 11.1l117.396 117.396 117.398-117.398c9.796-9.798 22.886-15.002 36.214-14.998 6.596 0 13.248 1.274 19.58 3.898 19.132 7.926 31.606 26.596 31.606 47.306v512c0 1.626-0.092 3.232-0.244 4.82l13.504 41.548 83.292 60.518-31.82 97.914 31.82 97.914zM1355.028 1236.4l50.020 36.34 19.108 58.8h61.824l50.022 36.346 50.022-36.342h61.824l19.108-58.8 50.020-36.34-19.108-58.804 19.108-58.8-50.020-36.342-19.108-58.8h-61.824l-50.022-36.346-50.022 36.342h-61.824l-19.108 58.8-50.020 36.342 19.108 58.804-19.108 58.8zM1572.202 650.602c-19.994 19.994-52.412 19.994-72.406 0l-66.196-66.196v336.852h19.11l83.29-60.516 83.29 60.512h19.11v-336.852l-66.198 66.198z" />
<glyph unicode="calendar5" glyph-name="calendar-full" data-tags="calendar-full, calendar, date, schedule" d="M1894.4 1740.8h-256v51.2c0 28.276-22.922 51.2-51.2 51.2s-51.2-22.924-51.2-51.2v-51.2h-1024v51.2c0 28.276-22.924 51.2-51.2 51.2s-51.2-22.924-51.2-51.2v-51.2h-256c-84.694 0-153.6-68.906-153.6-153.6v-1433.6c0-84.698 68.906-153.6 153.6-153.6h1740.8c84.698 0 153.6 68.902 153.6 153.6v1433.6c0 84.694-68.902 153.6-153.6 153.6zM153.6 1638.4h256v-153.6c0-28.276 22.924-51.2 51.2-51.2s51.2 22.924 51.2 51.2v153.6h1024v-153.6c0-28.276 22.922-51.2 51.2-51.2s51.2 22.924 51.2 51.2v153.6h256c28.23 0 51.2-22.97 51.2-51.2v-256h-1843.2v256c0 28.23 22.97 51.2 51.2 51.2zM1894.4 102.4h-1740.8c-28.23 0-51.2 22.97-51.2 51.2v1075.2h1843.2v-1075.2c0-28.23-22.97-51.2-51.2-51.2zM768 921.6h-102.4c-28.276 0-51.2 22.922-51.2 51.2s22.924 51.2 51.2 51.2h102.4c28.276 0 51.2-22.922 51.2-51.2s-22.924-51.2-51.2-51.2zM1075.2 921.6h-102.4c-28.276 0-51.2 22.922-51.2 51.2s22.924 51.2 51.2 51.2h102.4c28.278 0 51.2-22.922 51.2-51.2s-22.922-51.2-51.2-51.2zM1382.4 921.6h-102.4c-28.278 0-51.2 22.922-51.2 51.2s22.922 51.2 51.2 51.2h102.4c28.278 0 51.2-22.922 51.2-51.2s-22.922-51.2-51.2-51.2zM1689.6 921.6h-102.4c-28.278 0-51.2 22.922-51.2 51.2s22.922 51.2 51.2 51.2h102.4c28.278 0 51.2-22.922 51.2-51.2s-22.922-51.2-51.2-51.2zM460.8 716.8h-102.4c-28.276 0-51.2 22.922-51.2 51.2s22.924 51.2 51.2 51.2h102.4c28.276 0 51.2-22.922 51.2-51.2s-22.924-51.2-51.2-51.2zM768 716.8h-102.4c-28.276 0-51.2 22.922-51.2 51.2s22.924 51.2 51.2 51.2h102.4c28.276 0 51.2-22.922 51.2-51.2s-22.924-51.2-51.2-51.2zM1075.2 716.8h-102.4c-28.276 0-51.2 22.922-51.2 51.2s22.924 51.2 51.2 51.2h102.4c28.278 0 51.2-22.922 51.2-51.2s-22.922-51.2-51.2-51.2zM1382.4 716.8h-102.4c-28.278 0-51.2 22.922-51.2 51.2s22.922 51.2 51.2 51.2h102.4c28.278 0 51.2-22.922 51.2-51.2s-22.922-51.2-51.2-51.2zM1689.6 716.8h-102.4c-28.278 0-51.2 22.922-51.2 51.2s22.922 51.2 51.2 51.2h102.4c28.278 0 51.2-22.922 51.2-51.2s-22.922-51.2-51.2-51.2zM460.8 512h-102.4c-28.276 0-51.2 22.922-51.2 51.2s22.924 51.2 51.2 51.2h102.4c28.276 0 51.2-22.922 51.2-51.2s-22.924-51.2-51.2-51.2zM768 512h-102.4c-28.276 0-51.2 22.922-51.2 51.2s22.924 51.2 51.2 51.2h102.4c28.276 0 51.2-22.922 51.2-51.2s-22.924-51.2-51.2-51.2zM1075.2 512h-102.4c-28.276 0-51.2 22.922-51.2 51.2s22.924 51.2 51.2 51.2h102.4c28.278 0 51.2-22.922 51.2-51.2s-22.922-51.2-51.2-51.2zM1382.4 512h-102.4c-28.278 0-51.2 22.922-51.2 51.2s22.922 51.2 51.2 51.2h102.4c28.278 0 51.2-22.922 51.2-51.2s-22.922-51.2-51.2-51.2zM1689.6 512h-102.4c-28.278 0-51.2 22.922-51.2 51.2s22.922 51.2 51.2 51.2h102.4c28.278 0 51.2-22.922 51.2-51.2s-22.922-51.2-51.2-51.2zM460.8 307.2h-102.4c-28.276 0-51.2 22.922-51.2 51.2s22.924 51.2 51.2 51.2h102.4c28.276 0 51.2-22.922 51.2-51.2s-22.924-51.2-51.2-51.2zM768 307.2h-102.4c-28.276 0-51.2 22.922-51.2 51.2s22.924 51.2 51.2 51.2h102.4c28.276 0 51.2-22.922 51.2-51.2s-22.924-51.2-51.2-51.2zM1075.2 307.2h-102.4c-28.276 0-51.2 22.922-51.2 51.2s22.924 51.2 51.2 51.2h102.4c28.278 0 51.2-22.922 51.2-51.2s-22.922-51.2-51.2-51.2zM1382.4 307.2h-102.4c-28.278 0-51.2 22.922-51.2 51.2s22.922 51.2 51.2 51.2h102.4c28.278 0 51.2-22.922 51.2-51.2s-22.922-51.2-51.2-51.2zM1689.6 307.2h-102.4c-28.278 0-51.2 22.922-51.2 51.2s22.922 51.2 51.2 51.2h102.4c28.278 0 51.2-22.922 51.2-51.2s-22.922-51.2-51.2-51.2z" />
<glyph unicode="calendar-full" glyph-name="calendar-full" data-tags="calendar-full, calendar, date, schedule" d="M1894.4 1740.8h-256v51.2c0 28.276-22.922 51.2-51.2 51.2s-51.2-22.924-51.2-51.2v-51.2h-1024v51.2c0 28.276-22.924 51.2-51.2 51.2s-51.2-22.924-51.2-51.2v-51.2h-256c-84.694 0-153.6-68.906-153.6-153.6v-1433.6c0-84.698 68.906-153.6 153.6-153.6h1740.8c84.698 0 153.6 68.902 153.6 153.6v1433.6c0 84.694-68.902 153.6-153.6 153.6zM153.6 1638.4h256v-153.6c0-28.276 22.924-51.2 51.2-51.2s51.2 22.924 51.2 51.2v153.6h1024v-153.6c0-28.276 22.922-51.2 51.2-51.2s51.2 22.924 51.2 51.2v153.6h256c28.23 0 51.2-22.97 51.2-51.2v-256h-1843.2v256c0 28.23 22.97 51.2 51.2 51.2zM1894.4 102.4h-1740.8c-28.23 0-51.2 22.97-51.2 51.2v1075.2h1843.2v-1075.2c0-28.23-22.97-51.2-51.2-51.2zM768 921.6h-102.4c-28.276 0-51.2 22.922-51.2 51.2s22.924 51.2 51.2 51.2h102.4c28.276 0 51.2-22.922 51.2-51.2s-22.924-51.2-51.2-51.2zM1075.2 921.6h-102.4c-28.276 0-51.2 22.922-51.2 51.2s22.924 51.2 51.2 51.2h102.4c28.278 0 51.2-22.922 51.2-51.2s-22.922-51.2-51.2-51.2zM1382.4 921.6h-102.4c-28.278 0-51.2 22.922-51.2 51.2s22.922 51.2 51.2 51.2h102.4c28.278 0 51.2-22.922 51.2-51.2s-22.922-51.2-51.2-51.2zM1689.6 921.6h-102.4c-28.278 0-51.2 22.922-51.2 51.2s22.922 51.2 51.2 51.2h102.4c28.278 0 51.2-22.922 51.2-51.2s-22.922-51.2-51.2-51.2zM460.8 716.8h-102.4c-28.276 0-51.2 22.922-51.2 51.2s22.924 51.2 51.2 51.2h102.4c28.276 0 51.2-22.922 51.2-51.2s-22.924-51.2-51.2-51.2zM768 716.8h-102.4c-28.276 0-51.2 22.922-51.2 51.2s22.924 51.2 51.2 51.2h102.4c28.276 0 51.2-22.922 51.2-51.2s-22.924-51.2-51.2-51.2zM1075.2 716.8h-102.4c-28.276 0-51.2 22.922-51.2 51.2s22.924 51.2 51.2 51.2h102.4c28.278 0 51.2-22.922 51.2-51.2s-22.922-51.2-51.2-51.2zM1382.4 716.8h-102.4c-28.278 0-51.2 22.922-51.2 51.2s22.922 51.2 51.2 51.2h102.4c28.278 0 51.2-22.922 51.2-51.2s-22.922-51.2-51.2-51.2zM1689.6 716.8h-102.4c-28.278 0-51.2 22.922-51.2 51.2s22.922 51.2 51.2 51.2h102.4c28.278 0 51.2-22.922 51.2-51.2s-22.922-51.2-51.2-51.2zM460.8 512h-102.4c-28.276 0-51.2 22.922-51.2 51.2s22.924 51.2 51.2 51.2h102.4c28.276 0 51.2-22.922 51.2-51.2s-22.924-51.2-51.2-51.2zM768 512h-102.4c-28.276 0-51.2 22.922-51.2 51.2s22.924 51.2 51.2 51.2h102.4c28.276 0 51.2-22.922 51.2-51.2s-22.924-51.2-51.2-51.2zM1075.2 512h-102.4c-28.276 0-51.2 22.922-51.2 51.2s22.924 51.2 51.2 51.2h102.4c28.278 0 51.2-22.922 51.2-51.2s-22.922-51.2-51.2-51.2zM1382.4 512h-102.4c-28.278 0-51.2 22.922-51.2 51.2s22.922 51.2 51.2 51.2h102.4c28.278 0 51.2-22.922 51.2-51.2s-22.922-51.2-51.2-51.2zM1689.6 512h-102.4c-28.278 0-51.2 22.922-51.2 51.2s22.922 51.2 51.2 51.2h102.4c28.278 0 51.2-22.922 51.2-51.2s-22.922-51.2-51.2-51.2zM460.8 307.2h-102.4c-28.276 0-51.2 22.922-51.2 51.2s22.924 51.2 51.2 51.2h102.4c28.276 0 51.2-22.922 51.2-51.2s-22.924-51.2-51.2-51.2zM768 307.2h-102.4c-28.276 0-51.2 22.922-51.2 51.2s22.924 51.2 51.2 51.2h102.4c28.276 0 51.2-22.922 51.2-51.2s-22.924-51.2-51.2-51.2zM1075.2 307.2h-102.4c-28.276 0-51.2 22.922-51.2 51.2s22.924 51.2 51.2 51.2h102.4c28.278 0 51.2-22.922 51.2-51.2s-22.922-51.2-51.2-51.2zM1382.4 307.2h-102.4c-28.278 0-51.2 22.922-51.2 51.2s22.922 51.2 51.2 51.2h102.4c28.278 0 51.2-22.922 51.2-51.2s-22.922-51.2-51.2-51.2zM1689.6 307.2h-102.4c-28.278 0-51.2 22.922-51.2 51.2s22.922 51.2 51.2 51.2h102.4c28.278 0 51.2-22.922 51.2-51.2s-22.922-51.2-51.2-51.2z" />
<glyph unicode="briefcase" glyph-name="briefcase" data-tags="briefcase, suitcase, luggage" d="M1894.4 1433.6h-460.8v153.6c0 84.694-68.906 153.6-153.6 153.6h-512c-84.694 0-153.6-68.906-153.6-153.6v-153.6h-460.8c-84.694 0-153.6-68.906-153.6-153.6v-1126.4c0-84.698 68.906-153.6 153.6-153.6h1740.8c84.698 0 153.6 68.902 153.6 153.6v1126.4c0 84.694-68.902 153.6-153.6 153.6zM716.8 1587.2c0 28.23 22.97 51.2 51.2 51.2h512c28.23 0 51.2-22.97 51.2-51.2v-153.6h-614.4v153.6zM153.6 1331.2h1740.8c28.23 0 51.2-22.97 51.2-51.2v-768h-204.8v51.2c0 28.278-22.922 51.2-51.2 51.2h-204.8c-28.278 0-51.2-22.922-51.2-51.2v-51.2h-819.2v51.2c0 28.278-22.924 51.2-51.2 51.2h-204.8c-28.276 0-51.2-22.922-51.2-51.2v-51.2h-204.8v768c0 28.23 22.97 51.2 51.2 51.2zM1638.4 512v-102.4h-102.4v102.4h102.4zM512 512v-102.4h-102.4v102.4h102.4zM1894.4 102.4h-1740.8c-28.23 0-51.2 22.97-51.2 51.2v256h204.8v-51.2c0-28.278 22.924-51.2 51.2-51.2h204.8c28.276 0 51.2 22.922 51.2 51.2v51.2h819.2v-51.2c0-28.278 22.922-51.2 51.2-51.2h204.8c28.278 0 51.2 22.922 51.2 51.2v51.2h204.8v-256c0-28.23-22.97-51.2-51.2-51.2z" />
<glyph unicode="brand65" glyph-name="linkedin2" data-tags="linkedin, brand, social" d="M768 1152h354.212v-181.564h5.064c49.28 88.388 169.916 181.564 349.684 181.564 373.892 0 443.040-232.752 443.040-535.468v-616.532h-369.22v546.556c0 130.368-2.668 298.052-192.056 298.052-192.296 0-221.64-141.972-221.64-288.584v-556.024h-369.084v1152zM128 1152h384v-1152h-384v1152zM512 1472c0-106.038-85.962-192-192-192s-192 85.962-192 192c0 106.038 85.962 192 192 192s192-85.962 192-192z" />
<glyph unicode="brand58" glyph-name="soundcloud" data-tags="soundcloud, brand, social" d="M1783.92 891.592c-36.172 0-70.696-7.040-102.128-19.712-21.012 228.716-220.58 408.12-464 408.12-59.572 0-117.364-11.26-168.636-30.328-19.92-7.404-25.156-15.040-25.156-29.832v-805.428c0-15.532 12.48-28.468 28.248-29.992 0.672-0.068 727.072-0.42 731.78-0.42 145.808 0 263.972 113.632 263.972 253.788s-118.268 253.804-264.080 253.804zM800 384h64l32 448.44-32 447.56h-64l-32-447.56zM608 384h-64l-32 325.5 32 314.5h64l32-320zM288 384h64l32 256-32 256h-64l-32-256zM32 512h64l32 128-32 128h-64l-32-128z" />
<glyph unicode="brand21" glyph-name="youtube" data-tags="youtube, brand, social" d="M2027.6 1305.6c0 0-20 141.2-81.6 203.2-78 81.6-165.2 82-205.2 86.8-286.4 20.8-716.4 20.8-716.4 20.8h-0.8c0 0-430 0-716.4-20.8-40-4.8-127.2-5.2-205.2-86.8-61.6-62-81.2-203.2-81.2-203.2s-20.4-165.6-20.4-331.6v-155.2c0-165.6 20.4-331.6 20.4-331.6s20-141.2 81.2-203.2c78-81.6 180.4-78.8 226-87.6 164-15.6 696.4-20.4 696.4-20.4s430.4 0.8 716.8 21.2c40 4.8 127.2 5.2 205.2 86.8 61.6 62 81.6 203.2 81.6 203.2s20.4 165.6 20.4 331.6v155.2c-0.4 165.6-20.8 331.6-20.8 331.6zM812.4 630.4v575.6l553.2-288.8-553.2-286.8z" />
<glyph unicode="brand16" glyph-name="twitter" data-tags="twitter, brand, tweet, social" d="M2048 1467.2c-75.2-33.6-156.4-56-241.2-66 86.8 52 153.2 134.4 184.8 232.4-81.2-48-171.2-83.2-266.8-102-76.8 81.6-186 132.4-306.8 132.4-232 0-420-188-420-420 0-32.8 3.6-64.8 10.8-95.6-349.2 17.6-658.8 184.8-866 439.2-36-62-56.8-134.4-56.8-211.2 0-145.6 74-274.4 186.8-349.6-68.8 2-133.6 21.2-190.4 52.4 0-1.6 0-3.6 0-5.2 0-203.6 144.8-373.6 337.2-412-35.2-9.6-72.4-14.8-110.8-14.8-27.2 0-53.2 2.8-79.2 7.6 53.6-166.8 208.8-288.4 392.4-292-144-112.8-324.8-180-522-180-34 0-67.2 2-100.4 6 186.4-119.6 407.2-188.8 644.4-188.8 772.8 0 1195.6 640.4 1195.6 1195.6 0 18.4-0.4 36.4-1.2 54.4 82 58.8 153.2 132.8 209.6 217.2z" />
<glyph unicode="brand10" glyph-name="facebook" data-tags="facebook, brand, social" d="M1216 1536h320v384h-320c-247.028 0-448-200.972-448-448v-192h-256v-384h256v-1024h384v1024h320l64 384h-384v192c0 34.692 29.308 64 64 64z" />
</font>
</defs>
</svg>
